<mxfile host="Electron" agent="Mozilla/5.0 (X11; Linux x86_64) AppleWebKit/537.36 (KHTML, like Gecko) draw.io/27.0.5 Chrome/134.0.6998.205 Electron/35.3.0 Safari/537.36" version="27.0.5">
  <diagram name="Página-1" id="ztFMWlfKOKHECKkMHyaq">
    <mxGraphModel dx="1896" dy="1072" grid="1" gridSize="10" guides="1" tooltips="1" connect="1" arrows="1" fold="1" page="1" pageScale="1" pageWidth="413" pageHeight="583" math="0" shadow="0">
      <root>
        <mxCell id="0" />
        <mxCell id="1" parent="0" />
        <mxCell id="DnySy9knM9GUUwWtsOCn-65" value="" style="rounded=1;whiteSpace=wrap;html=1;align=center;verticalAlign=middle;fontFamily=Helvetica;fontSize=12;dashed=1;dashPattern=8 8;" parent="1" vertex="1">
          <mxGeometry x="2150" y="260" width="850" height="170" as="geometry" />
        </mxCell>
        <mxCell id="DnySy9knM9GUUwWtsOCn-58" value="" style="rounded=1;whiteSpace=wrap;html=1;align=center;verticalAlign=middle;fontFamily=Helvetica;fontSize=12;dashed=1;dashPattern=8 8;" parent="1" vertex="1">
          <mxGeometry x="20" y="90" width="2720" height="150" as="geometry" />
        </mxCell>
        <mxCell id="DnySy9knM9GUUwWtsOCn-57" value="" style="rounded=1;whiteSpace=wrap;html=1;align=center;verticalAlign=middle;fontFamily=Helvetica;fontSize=12;dashed=1;dashPattern=8 8;" parent="1" vertex="1">
          <mxGeometry x="20" y="270" width="1770" height="160" as="geometry" />
        </mxCell>
        <mxCell id="DnySy9knM9GUUwWtsOCn-2" value="&lt;font style=&quot;color: rgb(77, 77, 77);&quot;&gt;HIRING&lt;/font&gt;" style="rounded=0;whiteSpace=wrap;html=1;fillColor=#ffe6cc;strokeColor=#d79b00;" parent="1" vertex="1">
          <mxGeometry x="1530" y="20" width="120" height="60" as="geometry" />
        </mxCell>
        <mxCell id="7GKItIBILIyjW8x-R275-5" style="edgeStyle=orthogonalEdgeStyle;rounded=1;orthogonalLoop=1;jettySize=auto;html=1;exitX=0.75;exitY=1;exitDx=0;exitDy=0;entryX=0.5;entryY=0;entryDx=0;entryDy=0;jumpStyle=arc;curved=0;" parent="1" source="DnySy9knM9GUUwWtsOCn-3" target="6LgY4HPfTlegkirwGZ1n-8" edge="1">
          <mxGeometry relative="1" as="geometry">
            <Array as="points">
              <mxPoint x="730" y="250" />
              <mxPoint x="2230" y="250" />
            </Array>
          </mxGeometry>
        </mxCell>
        <mxCell id="DnySy9knM9GUUwWtsOCn-3" value="Создано задание" style="rounded=0;whiteSpace=wrap;html=1;fillColor=#f0a30a;strokeColor=#BD7000;fontColor=#ffffff;" parent="1" vertex="1">
          <mxGeometry x="640" y="145" width="120" height="60" as="geometry" />
        </mxCell>
        <mxCell id="DnySy9knM9GUUwWtsOCn-5" value="Менеджер" style="shape=note;whiteSpace=wrap;html=1;backgroundOutline=1;darkOpacity=0.05;fillColor=#FEE750;strokeColor=none;fontSize=18;fontStyle=0;rotation=0;shadow=1;rounded=0;align=center;verticalAlign=middle;fontFamily=Helvetica;fontColor=#4D4D4D;" parent="1" vertex="1">
          <mxGeometry x="400" y="105" width="120" height="120" as="geometry" />
        </mxCell>
        <mxCell id="6LgY4HPfTlegkirwGZ1n-11" style="edgeStyle=orthogonalEdgeStyle;rounded=1;orthogonalLoop=1;jettySize=auto;html=1;exitX=0.75;exitY=0;exitDx=0;exitDy=0;entryX=0;entryY=0.5;entryDx=0;entryDy=0;curved=0;jumpStyle=arc;" parent="1" source="DnySy9knM9GUUwWtsOCn-6" target="DnySy9knM9GUUwWtsOCn-2" edge="1">
          <mxGeometry relative="1" as="geometry" />
        </mxCell>
        <mxCell id="DnySy9knM9GUUwWtsOCn-6" value="Создать задание" style="rounded=0;whiteSpace=wrap;html=1;fillColor=#dae8fc;strokeColor=#6c8ebf;align=center;verticalAlign=middle;fontFamily=Helvetica;fontSize=12;fontColor=#4D4D4D;" parent="1" vertex="1">
          <mxGeometry x="520" y="145" width="120" height="60" as="geometry" />
        </mxCell>
        <mxCell id="DnySy9knM9GUUwWtsOCn-10" value="Кандидат" style="shape=note;whiteSpace=wrap;html=1;backgroundOutline=1;darkOpacity=0.05;fillColor=#FEE750;strokeColor=none;fontSize=18;fontStyle=0;rotation=0;shadow=1;rounded=0;align=center;verticalAlign=middle;fontFamily=Helvetica;fontColor=#4D4D4D;" parent="1" vertex="1">
          <mxGeometry x="400" y="290" width="120" height="120" as="geometry" />
        </mxCell>
        <mxCell id="DnySy9knM9GUUwWtsOCn-11" value="войти в систему" style="rounded=0;whiteSpace=wrap;html=1;fillColor=#dae8fc;strokeColor=#6c8ebf;align=center;verticalAlign=middle;fontFamily=Helvetica;fontSize=12;fontColor=#4D4D4D;" parent="1" vertex="1">
          <mxGeometry x="520" y="320" width="120" height="60" as="geometry" />
        </mxCell>
        <mxCell id="DnySy9knM9GUUwWtsOCn-12" value="Кандидат вошел в систему" style="rounded=0;whiteSpace=wrap;html=1;fillColor=#f0a30a;strokeColor=#BD7000;fontColor=#ffffff;" parent="1" vertex="1">
          <mxGeometry x="640" y="320" width="120" height="60" as="geometry" />
        </mxCell>
        <mxCell id="DnySy9knM9GUUwWtsOCn-16" value="Менеджер" style="shape=note;whiteSpace=wrap;html=1;backgroundOutline=1;darkOpacity=0.05;fillColor=#FEE750;strokeColor=none;fontSize=18;fontStyle=0;rotation=0;shadow=1;rounded=0;align=center;verticalAlign=middle;fontFamily=Helvetica;fontColor=#4D4D4D;" parent="1" vertex="1">
          <mxGeometry x="40" y="105" width="120" height="120" as="geometry" />
        </mxCell>
        <mxCell id="DnySy9knM9GUUwWtsOCn-17" value="войти в систему" style="rounded=0;whiteSpace=wrap;html=1;fillColor=#dae8fc;strokeColor=#6c8ebf;align=center;verticalAlign=middle;fontFamily=Helvetica;fontSize=12;fontColor=#4D4D4D;" parent="1" vertex="1">
          <mxGeometry x="160" y="145" width="120" height="60" as="geometry" />
        </mxCell>
        <mxCell id="DnySy9knM9GUUwWtsOCn-18" value="Менеджер вошел в систему" style="rounded=0;whiteSpace=wrap;html=1;fillColor=#f0a30a;strokeColor=#BD7000;fontColor=#ffffff;" parent="1" vertex="1">
          <mxGeometry x="280" y="145" width="120" height="60" as="geometry" />
        </mxCell>
        <mxCell id="DnySy9knM9GUUwWtsOCn-19" value="Кандидат" style="shape=note;whiteSpace=wrap;html=1;backgroundOutline=1;darkOpacity=0.05;fillColor=#FEE750;strokeColor=none;fontSize=18;fontStyle=0;rotation=0;shadow=1;rounded=0;align=center;verticalAlign=middle;fontFamily=Helvetica;fontColor=#4D4D4D;" parent="1" vertex="1">
          <mxGeometry x="40" y="290" width="120" height="120" as="geometry" />
        </mxCell>
        <mxCell id="DnySy9knM9GUUwWtsOCn-20" value="зарегистрироваться" style="rounded=0;whiteSpace=wrap;html=1;fillColor=#dae8fc;strokeColor=#6c8ebf;align=center;verticalAlign=middle;fontFamily=Helvetica;fontSize=12;fontColor=#4D4D4D;" parent="1" vertex="1">
          <mxGeometry x="160" y="320" width="120" height="60" as="geometry" />
        </mxCell>
        <mxCell id="DnySy9knM9GUUwWtsOCn-21" value="Появился новый кандидат" style="rounded=0;whiteSpace=wrap;html=1;fillColor=#f0a30a;strokeColor=#BD7000;fontColor=#ffffff;" parent="1" vertex="1">
          <mxGeometry x="280" y="320" width="120" height="60" as="geometry" />
        </mxCell>
        <mxCell id="DnySy9knM9GUUwWtsOCn-22" value="Кандидат" style="shape=note;whiteSpace=wrap;html=1;backgroundOutline=1;darkOpacity=0.05;fillColor=#FEE750;strokeColor=none;fontSize=18;fontStyle=0;rotation=0;shadow=1;rounded=0;align=center;verticalAlign=middle;fontFamily=Helvetica;fontColor=#4D4D4D;" parent="1" vertex="1">
          <mxGeometry x="1410" y="290" width="120" height="120" as="geometry" />
        </mxCell>
        <mxCell id="DnySy9knM9GUUwWtsOCn-23" value="выполнить задание" style="rounded=0;whiteSpace=wrap;html=1;fillColor=#dae8fc;strokeColor=#6c8ebf;align=center;verticalAlign=middle;fontFamily=Helvetica;fontSize=12;fontColor=#4D4D4D;" parent="1" vertex="1">
          <mxGeometry x="1530" y="320" width="120" height="60" as="geometry" />
        </mxCell>
        <mxCell id="lVPvYfhdDqwWL3eNMN8m-7" style="edgeStyle=orthogonalEdgeStyle;rounded=1;orthogonalLoop=1;jettySize=auto;html=1;exitX=0.75;exitY=0;exitDx=0;exitDy=0;entryX=0.25;entryY=0;entryDx=0;entryDy=0;curved=0;jumpStyle=arc;" parent="1" source="DnySy9knM9GUUwWtsOCn-24" target="6LgY4HPfTlegkirwGZ1n-8" edge="1">
          <mxGeometry relative="1" as="geometry">
            <Array as="points">
              <mxPoint x="1740" y="260" />
              <mxPoint x="2200" y="260" />
            </Array>
          </mxGeometry>
        </mxCell>
        <mxCell id="6LgY4HPfTlegkirwGZ1n-4" style="edgeStyle=orthogonalEdgeStyle;rounded=1;orthogonalLoop=1;jettySize=auto;html=1;exitX=0.5;exitY=0;exitDx=0;exitDy=0;entryX=0;entryY=0.5;entryDx=0;entryDy=0;curved=0;jumpStyle=arc;" parent="1" source="DnySy9knM9GUUwWtsOCn-24" target="6LgY4HPfTlegkirwGZ1n-1" edge="1">
          <mxGeometry relative="1" as="geometry" />
        </mxCell>
        <mxCell id="6LgY4HPfTlegkirwGZ1n-10" style="edgeStyle=orthogonalEdgeStyle;rounded=1;orthogonalLoop=1;jettySize=auto;html=1;exitX=1;exitY=0.5;exitDx=0;exitDy=0;entryX=0;entryY=0.5;entryDx=0;entryDy=0;curved=0;jumpStyle=arc;" parent="1" source="DnySy9knM9GUUwWtsOCn-24" target="lVPvYfhdDqwWL3eNMN8m-2" edge="1">
          <mxGeometry relative="1" as="geometry">
            <Array as="points">
              <mxPoint x="1810" y="320" />
              <mxPoint x="1810" y="320" />
            </Array>
          </mxGeometry>
        </mxCell>
        <mxCell id="DnySy9knM9GUUwWtsOCn-24" value="кандидат выполнил задание" style="rounded=0;whiteSpace=wrap;html=1;fillColor=#f0a30a;strokeColor=#BD7000;fontColor=#ffffff;" parent="1" vertex="1">
          <mxGeometry x="1650" y="290" width="120" height="60" as="geometry" />
        </mxCell>
        <mxCell id="DnySy9knM9GUUwWtsOCn-59" style="edgeStyle=orthogonalEdgeStyle;rounded=1;orthogonalLoop=1;jettySize=auto;html=1;exitX=0.5;exitY=1;exitDx=0;exitDy=0;entryX=0;entryY=0.5;entryDx=0;entryDy=0;fontFamily=Helvetica;fontSize=12;fontColor=#ffffff;jumpStyle=arc;curved=0;entryPerimeter=0;" parent="1" source="DnySy9knM9GUUwWtsOCn-34" target="DnySy9knM9GUUwWtsOCn-22" edge="1">
          <mxGeometry relative="1" as="geometry">
            <mxPoint x="1290" y="350" as="targetPoint" />
          </mxGeometry>
        </mxCell>
        <mxCell id="DnySy9knM9GUUwWtsOCn-34" value="Задание для кандидата назначено" style="rounded=0;whiteSpace=wrap;html=1;fillColor=#f0a30a;strokeColor=#BD7000;fontColor=#ffffff;" parent="1" vertex="1">
          <mxGeometry x="1160" y="135" width="120" height="60" as="geometry" />
        </mxCell>
        <mxCell id="DnySy9knM9GUUwWtsOCn-36" value="Менеджер" style="shape=note;whiteSpace=wrap;html=1;backgroundOutline=1;darkOpacity=0.05;fillColor=#FEE750;strokeColor=none;fontSize=18;fontStyle=0;rotation=0;shadow=1;rounded=0;align=center;verticalAlign=middle;fontFamily=Helvetica;fontColor=#4D4D4D;" parent="1" vertex="1">
          <mxGeometry x="920" y="105" width="120" height="120" as="geometry" />
        </mxCell>
        <mxCell id="DnySy9knM9GUUwWtsOCn-37" value="Назначить задание для кандидата" style="rounded=0;whiteSpace=wrap;html=1;fillColor=#dae8fc;strokeColor=#6c8ebf;align=center;verticalAlign=middle;fontFamily=Helvetica;fontSize=12;fontColor=#4D4D4D;" parent="1" vertex="1">
          <mxGeometry x="1040" y="135" width="120" height="60" as="geometry" />
        </mxCell>
        <mxCell id="DnySy9knM9GUUwWtsOCn-45" value="списать штраф менеджеру" style="rounded=0;whiteSpace=wrap;html=1;fillColor=#dae8fc;strokeColor=#6c8ebf;align=center;verticalAlign=middle;fontFamily=Helvetica;fontSize=12;fontColor=#4D4D4D;" parent="1" vertex="1">
          <mxGeometry x="2170" y="350" width="120" height="60" as="geometry" />
        </mxCell>
        <mxCell id="DnySy9knM9GUUwWtsOCn-50" value="штраф списан" style="rounded=0;whiteSpace=wrap;html=1;fillColor=#f0a30a;strokeColor=#BD7000;fontColor=#ffffff;" parent="1" vertex="1">
          <mxGeometry x="2290" y="350" width="120" height="60" as="geometry" />
        </mxCell>
        <mxCell id="DnySy9knM9GUUwWtsOCn-51" value="&lt;font style=&quot;color: rgb(77, 77, 77);&quot;&gt;cron&lt;/font&gt;" style="rounded=0;whiteSpace=wrap;html=1;fillColor=#ffe6cc;strokeColor=#d79b00;align=center;verticalAlign=middle;fontFamily=Helvetica;fontSize=12;fontColor=#ffffff;" parent="1" vertex="1">
          <mxGeometry x="2440" y="310" width="120" height="60" as="geometry" />
        </mxCell>
        <mxCell id="6LgY4HPfTlegkirwGZ1n-6" style="edgeStyle=orthogonalEdgeStyle;rounded=0;orthogonalLoop=1;jettySize=auto;html=1;exitX=0.5;exitY=1;exitDx=0;exitDy=0;entryX=0.5;entryY=0;entryDx=0;entryDy=0;" parent="1" source="DnySy9knM9GUUwWtsOCn-52" target="DnySy9knM9GUUwWtsOCn-54" edge="1">
          <mxGeometry relative="1" as="geometry" />
        </mxCell>
        <mxCell id="DnySy9knM9GUUwWtsOCn-52" value="выплатить деньги" style="rounded=0;whiteSpace=wrap;html=1;fillColor=#dae8fc;strokeColor=#6c8ebf;align=center;verticalAlign=middle;fontFamily=Helvetica;fontSize=12;fontColor=#4D4D4D;" parent="1" vertex="1">
          <mxGeometry x="2680" y="310" width="120" height="60" as="geometry" />
        </mxCell>
        <mxCell id="Me_CcijvVL-KQF1pLB6K-1" value="Отредактировано задание" style="rounded=0;whiteSpace=wrap;html=1;fillColor=#f0a30a;strokeColor=#BD7000;fontColor=#ffffff;" parent="1" vertex="1">
          <mxGeometry x="2600" y="135" width="120" height="60" as="geometry" />
        </mxCell>
        <mxCell id="Me_CcijvVL-KQF1pLB6K-2" value="Менеджер" style="shape=note;whiteSpace=wrap;html=1;backgroundOutline=1;darkOpacity=0.05;fillColor=#FEE750;strokeColor=none;fontSize=18;fontStyle=0;rotation=0;shadow=1;rounded=0;align=center;verticalAlign=middle;fontFamily=Helvetica;fontColor=#4D4D4D;" parent="1" vertex="1">
          <mxGeometry x="2360" y="105" width="120" height="120" as="geometry" />
        </mxCell>
        <mxCell id="6LgY4HPfTlegkirwGZ1n-12" style="edgeStyle=orthogonalEdgeStyle;rounded=1;orthogonalLoop=1;jettySize=auto;html=1;exitX=0.5;exitY=0;exitDx=0;exitDy=0;entryX=1;entryY=0.5;entryDx=0;entryDy=0;curved=0;jumpStyle=arc;" parent="1" source="Me_CcijvVL-KQF1pLB6K-3" target="DnySy9knM9GUUwWtsOCn-2" edge="1">
          <mxGeometry relative="1" as="geometry" />
        </mxCell>
        <mxCell id="Me_CcijvVL-KQF1pLB6K-3" value="Отредактировать задание" style="rounded=0;whiteSpace=wrap;html=1;fillColor=#dae8fc;strokeColor=#6c8ebf;align=center;verticalAlign=middle;fontFamily=Helvetica;fontSize=12;fontColor=#4D4D4D;" parent="1" vertex="1">
          <mxGeometry x="2480" y="135" width="120" height="60" as="geometry" />
        </mxCell>
        <mxCell id="lVPvYfhdDqwWL3eNMN8m-6" style="edgeStyle=orthogonalEdgeStyle;rounded=1;orthogonalLoop=1;jettySize=auto;html=1;exitX=1;exitY=0.5;exitDx=0;exitDy=0;entryX=0;entryY=0.5;entryDx=0;entryDy=0;curved=0;jumpStyle=arc;" parent="1" source="DnySy9knM9GUUwWtsOCn-40" target="DnySy9knM9GUUwWtsOCn-45" edge="1">
          <mxGeometry relative="1" as="geometry" />
        </mxCell>
        <mxCell id="DnySy9knM9GUUwWtsOCn-40" value="кандинат провалил задание" style="rounded=0;whiteSpace=wrap;html=1;fillColor=#f0a30a;strokeColor=#BD7000;fontColor=#ffffff;" parent="1" vertex="1">
          <mxGeometry x="1650" y="350" width="120" height="60" as="geometry" />
        </mxCell>
        <mxCell id="8WpInSQe6msBG5_rycKB-1" value="пробил час расплаты" style="rounded=0;whiteSpace=wrap;html=1;fillColor=#f0a30a;strokeColor=#BD7000;fontColor=#ffffff;" parent="1" vertex="1">
          <mxGeometry x="2560" y="310" width="120" height="60" as="geometry" />
        </mxCell>
        <mxCell id="cm4vjuxIyqyEFMrd2V7l-1" value="&lt;b&gt;&lt;font style=&quot;font-size: 15px;&quot;&gt;таким цветом обозначена «внешняя система»&lt;/font&gt;&lt;/b&gt;" style="rounded=0;whiteSpace=wrap;html=1;fillColor=#ffe6cc;strokeColor=#d79b00;" parent="1" vertex="1">
          <mxGeometry x="60" y="470" width="210" height="90" as="geometry" />
        </mxCell>
        <mxCell id="cm4vjuxIyqyEFMrd2V7l-2" value="&lt;font style=&quot;font-size: 20px;&quot;&gt;&lt;b&gt;а это — полиси&lt;/b&gt;&lt;/font&gt;" style="rounded=0;whiteSpace=wrap;html=1;fillColor=#d0cee2;strokeColor=#56517e;align=center;verticalAlign=middle;fontFamily=Helvetica;fontSize=12;fontColor=#ffffff;" parent="1" vertex="1">
          <mxGeometry x="310" y="470" width="250" height="90" as="geometry" />
        </mxCell>
        <mxCell id="Lc7p7DGT16RGpPgsKAyx-1" value="список кандидатов" style="rounded=0;whiteSpace=wrap;html=1;fillColor=#60a917;strokeColor=#2D7600;fontColor=#ffffff;align=center;verticalAlign=middle;fontFamily=Helvetica;fontSize=12;" parent="1" vertex="1">
          <mxGeometry x="800" y="105" width="120" height="60" as="geometry" />
        </mxCell>
        <mxCell id="lVPvYfhdDqwWL3eNMN8m-18" value="задания на редактирование" style="rounded=0;whiteSpace=wrap;html=1;fillColor=#60a917;strokeColor=#2D7600;fontColor=#ffffff;align=center;verticalAlign=middle;fontFamily=Helvetica;fontSize=12;" parent="1" vertex="1">
          <mxGeometry x="2240" y="135" width="120" height="60" as="geometry" />
        </mxCell>
        <mxCell id="DnySy9knM9GUUwWtsOCn-54" value="&lt;font color=&quot;#4d4d4d&quot;&gt;FINANCE&lt;/font&gt;" style="rounded=0;whiteSpace=wrap;html=1;fillColor=#ffe6cc;strokeColor=#d79b00;align=center;verticalAlign=middle;fontFamily=Helvetica;fontSize=12;fontColor=#ffffff;" parent="1" vertex="1">
          <mxGeometry x="2705" y="450" width="70" height="60" as="geometry" />
        </mxCell>
        <mxCell id="6LgY4HPfTlegkirwGZ1n-1" value="задание выполнено больше 10 раз" style="rounded=0;whiteSpace=wrap;html=1;fillColor=#d0cee2;strokeColor=#56517e;align=center;verticalAlign=middle;fontFamily=Helvetica;fontSize=12;fontColor=#ffffff;" parent="1" vertex="1">
          <mxGeometry x="1770" y="135" width="120" height="60" as="geometry" />
        </mxCell>
        <mxCell id="6LgY4HPfTlegkirwGZ1n-2" value="назначить менеджера на редактуру" style="rounded=0;whiteSpace=wrap;html=1;fillColor=#dae8fc;strokeColor=#6c8ebf;align=center;verticalAlign=middle;fontFamily=Helvetica;fontSize=12;fontColor=#4D4D4D;" parent="1" vertex="1">
          <mxGeometry x="1890" y="135" width="120" height="60" as="geometry" />
        </mxCell>
        <mxCell id="6LgY4HPfTlegkirwGZ1n-5" style="edgeStyle=orthogonalEdgeStyle;rounded=1;orthogonalLoop=1;jettySize=auto;html=1;exitX=1;exitY=0.5;exitDx=0;exitDy=0;entryX=0;entryY=0.5;entryDx=0;entryDy=0;curved=0;jumpStyle=arc;" parent="1" source="6LgY4HPfTlegkirwGZ1n-3" target="lVPvYfhdDqwWL3eNMN8m-18" edge="1">
          <mxGeometry relative="1" as="geometry" />
        </mxCell>
        <mxCell id="6LgY4HPfTlegkirwGZ1n-3" value="менеджер на редактирование назначен" style="rounded=0;whiteSpace=wrap;html=1;fillColor=#f0a30a;strokeColor=#BD7000;fontColor=#ffffff;" parent="1" vertex="1">
          <mxGeometry x="2010" y="135" width="120" height="60" as="geometry" />
        </mxCell>
        <mxCell id="6LgY4HPfTlegkirwGZ1n-7" value="инвойс выплачен" style="rounded=0;whiteSpace=wrap;html=1;fillColor=#f0a30a;strokeColor=#BD7000;fontColor=#ffffff;" parent="1" vertex="1">
          <mxGeometry x="2800" y="310" width="120" height="60" as="geometry" />
        </mxCell>
        <mxCell id="6LgY4HPfTlegkirwGZ1n-8" value="начислить бонусы менеджеру" style="rounded=0;whiteSpace=wrap;html=1;fillColor=#dae8fc;strokeColor=#6c8ebf;align=center;verticalAlign=middle;fontFamily=Helvetica;fontSize=12;fontColor=#4D4D4D;" parent="1" vertex="1">
          <mxGeometry x="2170" y="280" width="120" height="60" as="geometry" />
        </mxCell>
        <mxCell id="6LgY4HPfTlegkirwGZ1n-9" value="бонусы начислены" style="rounded=0;whiteSpace=wrap;html=1;fillColor=#f0a30a;strokeColor=#BD7000;fontColor=#ffffff;" parent="1" vertex="1">
          <mxGeometry x="2290" y="280" width="120" height="60" as="geometry" />
        </mxCell>
        <mxCell id="lVPvYfhdDqwWL3eNMN8m-2" value="добавить кандидата учителем" style="rounded=0;whiteSpace=wrap;html=1;fillColor=#dae8fc;strokeColor=#6c8ebf;align=center;verticalAlign=middle;fontFamily=Helvetica;fontSize=12;fontColor=#4D4D4D;" parent="1" vertex="1">
          <mxGeometry x="1820" y="290" width="120" height="60" as="geometry" />
        </mxCell>
        <mxCell id="DnySy9knM9GUUwWtsOCn-41" value="Система для учителей" style="rounded=0;whiteSpace=wrap;html=1;fillColor=#ffe6cc;strokeColor=#d79b00;align=center;verticalAlign=middle;fontFamily=Helvetica;fontSize=12;fontColor=#4D4D4D;" parent="1" vertex="1">
          <mxGeometry x="1940" y="290" width="80" height="60" as="geometry" />
        </mxCell>
        <mxCell id="lVPvYfhdDqwWL3eNMN8m-3" value="новый учитель добавлен" style="rounded=0;whiteSpace=wrap;html=1;fillColor=#f0a30a;strokeColor=#BD7000;fontColor=#ffffff;" parent="1" vertex="1">
          <mxGeometry x="2020" y="290" width="120" height="60" as="geometry" />
        </mxCell>
        <mxCell id="6LgY4HPfTlegkirwGZ1n-13" value="список заданий" style="rounded=0;whiteSpace=wrap;html=1;fillColor=#60a917;strokeColor=#2D7600;fontColor=#ffffff;align=center;verticalAlign=middle;fontFamily=Helvetica;fontSize=12;" parent="1" vertex="1">
          <mxGeometry x="800" y="165" width="120" height="60" as="geometry" />
        </mxCell>
      </root>
    </mxGraphModel>
  </diagram>
</mxfile>
